<svg width="15" height="14" fill="none" xmlns="http://www.w3.org/2000/svg"><path d="M4.034 7.155c.14.128.28.256.455.384.058.047.128.07.21.07a.344.344 0 0 0 .198-.63c-.14-.104-.269-.198-.373-.314a3.437 3.437 0 0 1-.747-1.108 3.353 3.353 0 0 1-.268-1.365 3.5 3.5 0 0 1 .268-1.352c.187-.42.432-.805.747-1.108A3.86 3.86 0 0 1 5.643.974a3.51 3.51 0 0 1 2.706 0c.42.186.804.443 1.12.758.314.315.57.688.745 1.108.187.42.269.874.269 1.352 0 .199.151.35.35.35.198 0 .35-.151.35-.35 0-.571-.106-1.12-.327-1.632a4.244 4.244 0 0 0-.898-1.33 4.53 4.53 0 0 0-1.33-.898C7.614-.11 6.366-.11 5.363.332a4.53 4.53 0 0 0-1.33.898 3.999 3.999 0 0 0-.897 1.33 4.068 4.068 0 0 0-.327 1.62c0 .56.105 1.132.327 1.645.221.513.525.956.898 1.33ZM9.806 5.58a4.196 4.196 0 0 0-4.198 4.198 4.196 4.196 0 0 0 4.198 4.199 4.196 4.196 0 0 0 4.199-4.199A4.196 4.196 0 0 0 9.806 5.58Zm0 7.709A3.501 3.501 0 0 1 6.308 9.79a3.509 3.509 0 0 1 3.498-3.498 3.509 3.509 0 0 1 3.499 3.498 3.509 3.509 0 0 1-3.499 3.499Zm2.146-3.814h-1.796V7.68a.344.344 0 0 0-.35-.35.344.344 0 0 0-.35.35v1.796H7.661a.344.344 0 0 0-.35.35c0 .198.151.35.35.35h1.795v1.796c0 .198.152.35.35.35.199 0 .35-.152.35-.35v-1.796h1.796c.198 0 .35-.152.35-.35a.344.344 0 0 0-.35-.35ZM1.048 13.277a.32.32 0 0 1-.256-.105c-.082-.082-.094-.373 0-.723.105-.362.268-.641.63-1.026.21-.233.478-.432.77-.618a5.432 5.432 0 0 1 1.049-.49c.256-.093.56-.163.898-.233a.338.338 0 0 0 .268-.409c-.035-.186-.21-.303-.42-.268a7.791 7.791 0 0 0-.98.268c-.431.152-.84.339-1.189.56-.35.222-.665.467-.921.735-.443.466-.665.84-.805 1.318-.082.291-.222 1.014.175 1.41.21.199.455.304.746.304h4.548c.199 0 .35-.152.35-.35 0-.198-.151-.373-.35-.373H1.048Z" fill="#fff" fill-opacity=".8"/></svg>